<mxfile host="Electron" modified="2023-11-13T22:03:11.195Z" agent="Mozilla/5.0 (Windows NT 10.0; Win64; x64) AppleWebKit/537.36 (KHTML, like Gecko) draw.io/22.0.2 Chrome/114.0.5735.289 Electron/25.8.4 Safari/537.36" version="22.0.2" etag="rWDo4_8m6s7db-L8w4PD" type="device">
  <diagram id="kNxqlGSgEBappFzxmhEb" name="Page-1">
    <mxGraphModel dx="1296" dy="954" grid="1" gridSize="10" guides="1" tooltips="1" connect="1" arrows="1" fold="1" page="1" pageScale="1" pageWidth="1100" pageHeight="850" math="0" shadow="0">
      <root>
        <mxCell id="0" />
        <mxCell id="1" parent="0" />
        <mxCell id="2" style="edgeStyle=none;html=1;entryX=0;entryY=0.5;entryDx=0;entryDy=0;" parent="1" source="3" target="5" edge="1">
          <mxGeometry relative="1" as="geometry" />
        </mxCell>
        <mxCell id="3" value="&lt;p style=&quot;line-height: 90%;&quot;&gt;&lt;font style=&quot;font-size: 10px;&quot;&gt;Start&lt;/font&gt;&lt;/p&gt;" style="ellipse;whiteSpace=wrap;html=1;aspect=fixed;" parent="1" vertex="1">
          <mxGeometry x="60" y="210" width="40" height="40" as="geometry" />
        </mxCell>
        <mxCell id="M9zlp-NIrC1NGblGrZdd-69" value="" style="edgeStyle=orthogonalEdgeStyle;rounded=0;orthogonalLoop=1;jettySize=auto;html=1;dashed=1;" edge="1" parent="1" source="15" target="M9zlp-NIrC1NGblGrZdd-61">
          <mxGeometry relative="1" as="geometry" />
        </mxCell>
        <mxCell id="M9zlp-NIrC1NGblGrZdd-70" value="&amp;nbsp;No&amp;nbsp;" style="edgeLabel;html=1;align=center;verticalAlign=middle;resizable=0;points=[];" vertex="1" connectable="0" parent="M9zlp-NIrC1NGblGrZdd-69">
          <mxGeometry x="-0.0733" y="-2" relative="1" as="geometry">
            <mxPoint as="offset" />
          </mxGeometry>
        </mxCell>
        <mxCell id="M9zlp-NIrC1NGblGrZdd-72" value="" style="edgeStyle=orthogonalEdgeStyle;rounded=0;orthogonalLoop=1;jettySize=auto;html=1;" edge="1" parent="1" source="15" target="M9zlp-NIrC1NGblGrZdd-71">
          <mxGeometry relative="1" as="geometry" />
        </mxCell>
        <mxCell id="M9zlp-NIrC1NGblGrZdd-95" value="&amp;nbsp;Yes&amp;nbsp;" style="edgeLabel;html=1;align=center;verticalAlign=middle;resizable=0;points=[];" vertex="1" connectable="0" parent="M9zlp-NIrC1NGblGrZdd-72">
          <mxGeometry x="-0.1125" y="-1" relative="1" as="geometry">
            <mxPoint as="offset" />
          </mxGeometry>
        </mxCell>
        <mxCell id="15" value="&lt;p style=&quot;line-height: 90%; font-size: 10px;&quot;&gt;Has&lt;br&gt;google?&lt;/p&gt;" style="rhombus;whiteSpace=wrap;html=1;fontSize=8;" parent="1" vertex="1">
          <mxGeometry x="365" y="355" width="70" height="70" as="geometry" />
        </mxCell>
        <mxCell id="21" value="" style="endArrow=classic;html=1;fontSize=7;entryX=0.5;entryY=0;entryDx=0;entryDy=0;exitX=0.5;exitY=1;exitDx=0;exitDy=0;" parent="1" target="M9zlp-NIrC1NGblGrZdd-73" edge="1" source="M9zlp-NIrC1NGblGrZdd-71">
          <mxGeometry relative="1" as="geometry">
            <mxPoint x="510" y="394.6" as="sourcePoint" />
            <mxPoint x="610" y="394.6" as="targetPoint" />
            <Array as="points">
              <mxPoint x="580" y="450" />
              <mxPoint x="640" y="450" />
            </Array>
          </mxGeometry>
        </mxCell>
        <mxCell id="22" value="&lt;font style=&quot;font-size: 10px;&quot;&gt;&amp;nbsp; Google&amp;nbsp;&amp;nbsp;&lt;/font&gt;" style="edgeLabel;resizable=0;html=1;align=center;verticalAlign=middle;fontSize=7;" parent="21" connectable="0" vertex="1">
          <mxGeometry relative="1" as="geometry">
            <mxPoint as="offset" />
          </mxGeometry>
        </mxCell>
        <mxCell id="31" value="&lt;font style=&quot;font-size: 10px;&quot;&gt;Upload&lt;br&gt;image&lt;/font&gt;" style="rhombus;whiteSpace=wrap;html=1;fontSize=7;" parent="1" vertex="1">
          <mxGeometry x="808.23" y="475" width="70" height="70" as="geometry" />
        </mxCell>
        <mxCell id="32" value="" style="endArrow=classic;html=1;fontSize=7;exitX=1;exitY=0.5;exitDx=0;exitDy=0;" parent="1" source="31" edge="1" target="45">
          <mxGeometry relative="1" as="geometry">
            <mxPoint x="940" y="569.71" as="sourcePoint" />
            <mxPoint x="1039.9999999999998" y="630" as="targetPoint" />
            <Array as="points">
              <mxPoint x="1030" y="510" />
            </Array>
          </mxGeometry>
        </mxCell>
        <mxCell id="33" value="&lt;font style=&quot;font-size: 10px;&quot;&gt;&amp;nbsp; Yes&amp;nbsp;&amp;nbsp;&lt;/font&gt;" style="edgeLabel;resizable=0;html=1;align=center;verticalAlign=middle;fontSize=7;" parent="32" connectable="0" vertex="1">
          <mxGeometry relative="1" as="geometry">
            <mxPoint x="-80" as="offset" />
          </mxGeometry>
        </mxCell>
        <mxCell id="36" value="" style="endArrow=classic;html=1;fontSize=7;exitX=0.5;exitY=1;exitDx=0;exitDy=0;entryX=0.5;entryY=0;entryDx=0;entryDy=0;" parent="1" source="31" target="38" edge="1">
          <mxGeometry relative="1" as="geometry">
            <mxPoint x="1000" y="630" as="sourcePoint" />
            <mxPoint x="920" y="670" as="targetPoint" />
          </mxGeometry>
        </mxCell>
        <mxCell id="37" value="&lt;p style=&quot;line-height: 0%;&quot;&gt;&lt;font style=&quot;font-size: 10px;&quot;&gt;No&lt;/font&gt;&lt;/p&gt;" style="edgeLabel;resizable=0;html=1;align=center;verticalAlign=middle;fontSize=7;" parent="36" connectable="0" vertex="1">
          <mxGeometry relative="1" as="geometry">
            <mxPoint y="-5" as="offset" />
          </mxGeometry>
        </mxCell>
        <mxCell id="M9zlp-NIrC1NGblGrZdd-85" style="edgeStyle=orthogonalEdgeStyle;rounded=0;orthogonalLoop=1;jettySize=auto;html=1;" edge="1" parent="1" source="38" target="45">
          <mxGeometry relative="1" as="geometry" />
        </mxCell>
        <mxCell id="M9zlp-NIrC1NGblGrZdd-86" value="&amp;nbsp;No&amp;nbsp;" style="edgeLabel;html=1;align=center;verticalAlign=middle;resizable=0;points=[];" vertex="1" connectable="0" parent="M9zlp-NIrC1NGblGrZdd-85">
          <mxGeometry x="-0.3255" y="-1" relative="1" as="geometry">
            <mxPoint as="offset" />
          </mxGeometry>
        </mxCell>
        <mxCell id="38" value="&lt;font style=&quot;font-size: 10px;&quot;&gt;Take&lt;br&gt;photo&lt;/font&gt;" style="rhombus;whiteSpace=wrap;html=1;fontSize=7;" parent="1" vertex="1">
          <mxGeometry x="810" y="640" width="68.23" height="68.23" as="geometry" />
        </mxCell>
        <mxCell id="45" value="&lt;font style=&quot;font-size: 10px;&quot;&gt;Finish&lt;/font&gt;" style="ellipse;whiteSpace=wrap;html=1;aspect=fixed;fontSize=7;" parent="1" vertex="1">
          <mxGeometry x="1010" y="654.12" width="40" height="40" as="geometry" />
        </mxCell>
        <mxCell id="M9zlp-NIrC1NGblGrZdd-78" style="edgeStyle=orthogonalEdgeStyle;rounded=0;orthogonalLoop=1;jettySize=auto;html=1;exitX=0.5;exitY=0;exitDx=0;exitDy=0;entryX=0.5;entryY=0;entryDx=0;entryDy=0;" edge="1" parent="1" source="48" target="M9zlp-NIrC1NGblGrZdd-74">
          <mxGeometry relative="1" as="geometry">
            <Array as="points">
              <mxPoint x="844" y="160" />
              <mxPoint x="640" y="160" />
            </Array>
          </mxGeometry>
        </mxCell>
        <mxCell id="M9zlp-NIrC1NGblGrZdd-79" value="&amp;nbsp;No&amp;nbsp;" style="edgeLabel;html=1;align=center;verticalAlign=middle;resizable=0;points=[];" vertex="1" connectable="0" parent="M9zlp-NIrC1NGblGrZdd-78">
          <mxGeometry x="-0.1612" relative="1" as="geometry">
            <mxPoint as="offset" />
          </mxGeometry>
        </mxCell>
        <mxCell id="M9zlp-NIrC1NGblGrZdd-80" style="edgeStyle=orthogonalEdgeStyle;rounded=0;orthogonalLoop=1;jettySize=auto;html=1;exitX=0.5;exitY=1;exitDx=0;exitDy=0;entryX=0.75;entryY=0;entryDx=0;entryDy=0;" edge="1" parent="1" source="48" target="M9zlp-NIrC1NGblGrZdd-73">
          <mxGeometry relative="1" as="geometry" />
        </mxCell>
        <mxCell id="M9zlp-NIrC1NGblGrZdd-81" value="Yes" style="edgeLabel;html=1;align=center;verticalAlign=middle;resizable=0;points=[];" vertex="1" connectable="0" parent="M9zlp-NIrC1NGblGrZdd-80">
          <mxGeometry x="-0.6863" y="-1" relative="1" as="geometry">
            <mxPoint y="-20" as="offset" />
          </mxGeometry>
        </mxCell>
        <mxCell id="48" value="&lt;p style=&quot;line-height: 100%;&quot;&gt;&lt;font style=&quot;font-size: 10px;&quot;&gt;Is auth?&lt;/font&gt;&lt;/p&gt;" style="rhombus;whiteSpace=wrap;html=1;" parent="1" vertex="1">
          <mxGeometry x="810" y="198.13" width="68.23" height="63.75" as="geometry" />
        </mxCell>
        <mxCell id="M9zlp-NIrC1NGblGrZdd-64" value="" style="edgeStyle=orthogonalEdgeStyle;rounded=0;orthogonalLoop=1;jettySize=auto;html=1;" edge="1" parent="1" source="5" target="M9zlp-NIrC1NGblGrZdd-61">
          <mxGeometry relative="1" as="geometry" />
        </mxCell>
        <mxCell id="M9zlp-NIrC1NGblGrZdd-65" value="No" style="edgeLabel;html=1;align=center;verticalAlign=middle;resizable=0;points=[];" vertex="1" connectable="0" parent="M9zlp-NIrC1NGblGrZdd-64">
          <mxGeometry x="-0.1064" y="1" relative="1" as="geometry">
            <mxPoint as="offset" />
          </mxGeometry>
        </mxCell>
        <mxCell id="M9zlp-NIrC1NGblGrZdd-67" value="" style="edgeStyle=orthogonalEdgeStyle;rounded=0;orthogonalLoop=1;jettySize=auto;html=1;" edge="1" parent="1" source="5" target="M9zlp-NIrC1NGblGrZdd-60">
          <mxGeometry relative="1" as="geometry" />
        </mxCell>
        <mxCell id="M9zlp-NIrC1NGblGrZdd-68" value="&amp;nbsp;Yes&amp;nbsp;" style="edgeLabel;html=1;align=center;verticalAlign=middle;resizable=0;points=[];" vertex="1" connectable="0" parent="M9zlp-NIrC1NGblGrZdd-67">
          <mxGeometry x="-0.2262" relative="1" as="geometry">
            <mxPoint as="offset" />
          </mxGeometry>
        </mxCell>
        <mxCell id="5" value="&lt;p style=&quot;line-height: 100%; font-size: 10px;&quot;&gt;&lt;font style=&quot;font-size: 10px;&quot;&gt;Has&lt;br&gt;account?&lt;/font&gt;&lt;/p&gt;" style="rhombus;whiteSpace=wrap;html=1;" parent="1" vertex="1">
          <mxGeometry x="170" y="196.25" width="70" height="67.5" as="geometry" />
        </mxCell>
        <mxCell id="M9zlp-NIrC1NGblGrZdd-66" value="" style="edgeStyle=orthogonalEdgeStyle;rounded=0;orthogonalLoop=1;jettySize=auto;html=1;" edge="1" parent="1" source="M9zlp-NIrC1NGblGrZdd-60" target="15">
          <mxGeometry relative="1" as="geometry" />
        </mxCell>
        <mxCell id="M9zlp-NIrC1NGblGrZdd-76" style="edgeStyle=orthogonalEdgeStyle;rounded=0;orthogonalLoop=1;jettySize=auto;html=1;exitX=1;exitY=0.5;exitDx=0;exitDy=0;" edge="1" parent="1" source="M9zlp-NIrC1NGblGrZdd-60" target="M9zlp-NIrC1NGblGrZdd-74">
          <mxGeometry relative="1" as="geometry" />
        </mxCell>
        <mxCell id="M9zlp-NIrC1NGblGrZdd-60" value="&lt;p style=&quot;line-height: 100%;&quot;&gt;&lt;font size=&quot;1&quot;&gt;Proceed to&lt;br&gt;sign in&lt;br&gt;&lt;/font&gt;&lt;/p&gt;" style="rounded=1;whiteSpace=wrap;html=1;" vertex="1" parent="1">
          <mxGeometry x="340" y="210" width="120" height="40" as="geometry" />
        </mxCell>
        <mxCell id="M9zlp-NIrC1NGblGrZdd-93" value="" style="edgeStyle=orthogonalEdgeStyle;rounded=0;orthogonalLoop=1;jettySize=auto;html=1;" edge="1" parent="1" source="M9zlp-NIrC1NGblGrZdd-61" target="M9zlp-NIrC1NGblGrZdd-89">
          <mxGeometry relative="1" as="geometry" />
        </mxCell>
        <mxCell id="M9zlp-NIrC1NGblGrZdd-61" value="&lt;p style=&quot;line-height: 100%;&quot;&gt;&lt;font size=&quot;1&quot;&gt;Proceed to&lt;br&gt;user registration&lt;br&gt;&lt;/font&gt;&lt;/p&gt;" style="rounded=1;whiteSpace=wrap;html=1;" vertex="1" parent="1">
          <mxGeometry x="145" y="370" width="120" height="40" as="geometry" />
        </mxCell>
        <mxCell id="M9zlp-NIrC1NGblGrZdd-71" value="&lt;p style=&quot;line-height: 100%;&quot;&gt;&lt;font size=&quot;1&quot;&gt;Select Google&lt;/font&gt;&lt;/p&gt;" style="rounded=1;whiteSpace=wrap;html=1;" vertex="1" parent="1">
          <mxGeometry x="520" y="370" width="120" height="40" as="geometry" />
        </mxCell>
        <mxCell id="M9zlp-NIrC1NGblGrZdd-82" value="" style="edgeStyle=orthogonalEdgeStyle;rounded=0;orthogonalLoop=1;jettySize=auto;html=1;" edge="1" parent="1" source="M9zlp-NIrC1NGblGrZdd-73" target="31">
          <mxGeometry relative="1" as="geometry" />
        </mxCell>
        <mxCell id="M9zlp-NIrC1NGblGrZdd-73" value="&lt;p style=&quot;line-height: 0%;&quot;&gt;&lt;font size=&quot;1&quot;&gt;Proceed to&lt;/font&gt;&lt;/p&gt;&lt;p style=&quot;line-height: 0%;&quot;&gt;&lt;font size=&quot;1&quot;&gt;user profile&lt;/font&gt;&lt;/p&gt;" style="rounded=1;whiteSpace=wrap;html=1;" vertex="1" parent="1">
          <mxGeometry x="580" y="490" width="120" height="40" as="geometry" />
        </mxCell>
        <mxCell id="M9zlp-NIrC1NGblGrZdd-77" style="edgeStyle=orthogonalEdgeStyle;rounded=0;orthogonalLoop=1;jettySize=auto;html=1;exitX=1;exitY=0.5;exitDx=0;exitDy=0;" edge="1" parent="1" source="M9zlp-NIrC1NGblGrZdd-74" target="48">
          <mxGeometry relative="1" as="geometry" />
        </mxCell>
        <mxCell id="M9zlp-NIrC1NGblGrZdd-74" value="&lt;p style=&quot;line-height: 0%;&quot;&gt;&lt;font size=&quot;1&quot;&gt;Enter user&lt;/font&gt;&lt;/p&gt;&lt;p style=&quot;line-height: 0%;&quot;&gt;&lt;font size=&quot;1&quot;&gt;credentials&lt;/font&gt;&lt;/p&gt;" style="rounded=1;whiteSpace=wrap;html=1;" vertex="1" parent="1">
          <mxGeometry x="580" y="210" width="120" height="40" as="geometry" />
        </mxCell>
        <mxCell id="M9zlp-NIrC1NGblGrZdd-94" style="edgeStyle=orthogonalEdgeStyle;rounded=0;orthogonalLoop=1;jettySize=auto;html=1;exitX=1;exitY=0.5;exitDx=0;exitDy=0;" edge="1" parent="1" source="M9zlp-NIrC1NGblGrZdd-89" target="M9zlp-NIrC1NGblGrZdd-73">
          <mxGeometry relative="1" as="geometry" />
        </mxCell>
        <mxCell id="M9zlp-NIrC1NGblGrZdd-89" value="&lt;p style=&quot;line-height: 0%;&quot;&gt;&lt;font size=&quot;1&quot;&gt;Complete User&lt;/font&gt;&lt;/p&gt;&lt;p style=&quot;line-height: 0%;&quot;&gt;&lt;font size=&quot;1&quot;&gt;Info form&lt;/font&gt;&lt;/p&gt;" style="rounded=1;whiteSpace=wrap;html=1;" vertex="1" parent="1">
          <mxGeometry x="145" y="490" width="120" height="40" as="geometry" />
        </mxCell>
      </root>
    </mxGraphModel>
  </diagram>
</mxfile>
